<svg width="248" height="124" viewBox="0 0 248 124" fill="none" xmlns="http://www.w3.org/2000/svg">
<path d="M248 0H48L0 48V124H200L248 76V0Z" fill="white"/>
<path d="M0 117H207.033L200 124H0V117Z" fill="url(#paint0_linear_6023_4860)"/>
<path d="M60.8903 45.0087H49V79.138H60.8903C65.7349 79.138 69.8592 77.4953 73.1335 74.254C76.4113 71.0127 78.0786 66.961 78.0786 62.22V62.0752C78.0786 57.2682 76.4004 53.1743 73.0878 49.9202C69.7788 46.6678 65.6691 45.0087 60.8903 45.0087ZM69.5192 70.69C67.3108 72.9725 64.4095 74.133 60.8903 74.133H54.3309V50.0155H60.8903C64.3711 50.0155 67.2687 51.1577 69.4918 53.4035C71.7148 55.6493 72.8373 58.5717 72.8373 62.0697C72.8373 65.498 71.7203 68.3947 69.5137 70.6808M83.309 45.0563H88.691V79.0885H83.309V45.0563ZM95.128 79.0903H100.415V64.4512H115.934V59.6405H100.415V50.0137H117.876V45.06H95.128V79.0903ZM146.375 69.513C145.586 70.6944 144.572 71.7076 143.391 72.494C141.662 73.6435 139.612 74.2302 137.307 74.2302C133.951 74.2302 131.121 73.0385 128.894 70.6827C128.539 70.3037 128.207 69.9033 127.901 69.4837C126.34 67.3607 125.547 64.8508 125.547 62.0257C125.547 59.2023 126.311 56.7072 127.814 54.6007C128.144 54.1295 128.505 53.684 128.892 53.2623C131.122 50.9138 133.951 49.7203 137.307 49.7203C139.58 49.7203 141.633 50.3382 143.397 51.5555C144.581 52.3771 145.605 53.4092 146.419 54.6007L150.495 51.3868C149.379 49.8788 148.028 48.5599 146.495 47.48C143.806 45.5807 140.713 44.6145 137.307 44.6145C132.59 44.6145 128.519 46.3323 125.21 49.7167C124.691 50.2483 124.205 50.8057 123.755 51.3923C121.408 54.4302 120.214 58.007 120.214 62.0257C120.214 66.07 121.424 69.6633 123.812 72.7103C124.249 73.2677 124.715 73.7993 125.21 74.3017C128.523 77.675 132.589 79.3855 137.307 79.3855C140.717 79.3855 143.806 78.4377 146.497 76.5402C148.006 75.4827 149.337 74.1911 150.441 72.714L146.375 69.513ZM200 60.328L179.932 40V45.709L194.367 60.328H200ZM156.559 60.328L176.627 40V45.709L162.19 60.328H156.559ZM156.559 63.672L176.627 84V78.291L162.19 63.672H156.559ZM200 63.672L179.932 84V78.291L194.367 63.672H200ZM180.28 50.769L178.278 48.7468L176.282 50.7672V72.835L178.278 74.8553L180.278 72.8295L180.28 50.769ZM173.32 69.8577V53.7647L169.344 57.7833V65.8042L173.32 69.8577ZM183.241 69.8577V53.7647L187.221 57.7833V65.8042L183.245 69.8577H183.241Z" fill="black"/>
<defs>
<linearGradient id="paint0_linear_6023_4860" x1="206.803" y1="117.625" x2="201.846" y2="153.024" gradientUnits="userSpaceOnUse">
<stop stop-color="#661FFD"/>
<stop offset="1" stop-color="#63FF91"/>
</linearGradient>
</defs>
</svg>
