<?xml version="1.0" encoding="UTF-8"?>
<svg xmlns="http://www.w3.org/2000/svg" width="190" height="40" viewBox="0 0 190 40" fill="none">
  <path d="M80.4909 7.46667C81.5036 7.46667 82.4227 7.6996 83.248 8.16546C84.0734 8.63131 84.719 9.2744 85.1849 10.0947C85.6558 10.91 85.8913 11.8214 85.8913 12.8291C85.8913 13.5836 85.752 14.2925 85.4735 14.9558C85.2001 15.6192 84.8254 16.1888 84.3494 16.6648C83.8734 17.1408 83.3012 17.5155 82.6328 17.7889C81.9644 18.0624 81.2504 18.1991 80.4909 18.1991H76.3969V7.46667H80.4909ZM80.4757 17.2952C81.7416 17.2952 82.7974 16.8699 83.643 16.0192C84.4886 15.1685 84.9114 14.1051 84.9114 12.8291C84.9114 11.9885 84.719 11.229 84.3342 10.5504C83.9494 9.86685 83.4177 9.33263 82.7391 8.94779C82.0657 8.56295 81.3112 8.37054 80.4757 8.37054H77.3463V17.2952H80.4757Z" fill="white"></path>
  <path d="M92.0968 18.389C90.8663 18.389 89.8359 17.9814 89.0054 17.1661C88.18 16.3458 87.7673 15.3255 87.7673 14.1051V7.46667H88.732V14.1051C88.732 15.0571 89.051 15.8546 89.689 16.4977C90.3321 17.1357 91.1347 17.4547 92.0968 17.4547C93.0538 17.4547 93.8488 17.1357 94.4818 16.4977C95.1198 15.8546 95.4388 15.0571 95.4388 14.1051V7.46667H96.4034V14.1051C96.4034 14.9102 96.2161 15.6394 95.8413 16.2926C95.4666 16.9458 94.9501 17.4598 94.2919 17.8345C93.6336 18.2042 92.9019 18.389 92.0968 18.389Z" fill="white"></path>
  <path d="M104.462 12.5177C105.085 12.6595 105.591 12.9886 105.981 13.5051C106.371 14.0165 106.566 14.6166 106.566 15.3052C106.566 16.1357 106.288 16.8268 105.731 17.3788C105.174 17.9257 104.477 18.1991 103.642 18.1991H98.8947V7.46667H103.27C104.034 7.46667 104.672 7.71986 105.184 8.22622C105.7 8.73259 105.959 9.36554 105.959 10.1251C105.959 10.6618 105.817 11.1505 105.533 11.591C105.25 12.0265 104.893 12.3354 104.462 12.5177ZM103.065 8.34015H99.829V12.2139H103.065C103.586 12.2139 104.034 12.0265 104.409 11.6518C104.789 11.272 104.979 10.8112 104.979 10.2694C104.979 9.71747 104.794 9.25921 104.424 8.89462C104.06 8.52498 103.606 8.34015 103.065 8.34015ZM103.437 17.3256C104.044 17.3256 104.551 17.1205 104.956 16.7104C105.366 16.2952 105.571 15.7812 105.571 15.1685C105.571 14.5609 105.366 14.0545 104.956 13.6494C104.551 13.2392 104.044 13.0342 103.437 13.0342H99.829V17.3256H103.437Z" fill="white"></path>
  <path d="M116.418 18.1991L115.195 15.2596H109.559L108.336 18.1991H107.288L111.815 7.46667H112.969L117.496 18.1991H116.418ZM109.931 14.371H114.838L112.377 8.49206L109.931 14.371Z" fill="white"></path>
  <path d="M119.296 18.1991V7.46667H120.246V18.1991H119.296Z" fill="white"></path>
  <path d="M132.9 9.48707H128.061V11.9024H132.277V13.9228H128.061V18.1991H125.912V7.46667H132.9V9.48707Z" fill="white"></path>
  <path d="M140.951 17.8269C140.272 18.2016 139.515 18.389 138.68 18.389C137.844 18.389 137.087 18.2016 136.409 17.8269C135.73 17.4471 135.199 16.9256 134.814 16.2622C134.429 15.5989 134.237 14.8596 134.237 14.0444V7.46667H136.378V14.014C136.378 14.6672 136.596 15.2141 137.032 15.6546C137.472 16.0951 138.022 16.3154 138.68 16.3154C139.338 16.3154 139.888 16.0951 140.328 15.6546C140.769 15.2141 140.989 14.6672 140.989 14.014V7.46667H143.131V14.0444C143.131 14.8596 142.936 15.5989 142.546 16.2622C142.161 16.9256 141.629 17.4471 140.951 17.8269Z" fill="white"></path>
  <path d="M152.769 7.46667V9.48707H149.671V18.1991H147.529V9.48707H144.414V7.46667H152.769Z" fill="white"></path>
  <path d="M160.775 17.8269C160.097 18.2016 159.34 18.389 158.504 18.389C157.669 18.389 156.912 18.2016 156.233 17.8269C155.554 17.4471 155.023 16.9256 154.638 16.2622C154.253 15.5989 154.061 14.8596 154.061 14.0444V7.46667H156.203V14.014C156.203 14.6672 156.42 15.2141 156.856 15.6546C157.296 16.0951 157.846 16.3154 158.504 16.3154C159.162 16.3154 159.712 16.0951 160.152 15.6546C160.593 15.2141 160.813 14.6672 160.813 14.014V7.46667H162.955V14.0444C162.955 14.8596 162.76 15.5989 162.37 16.2622C161.985 16.9256 161.454 17.4471 160.775 17.8269Z" fill="white"></path>
  <path d="M170.824 18.1991L168.348 14.371H167.072V18.1991H164.922V7.46667H169.495C170.528 7.46667 171.394 7.80341 172.092 8.47687C172.791 9.14528 173.141 9.98078 173.141 10.9834C173.141 11.7429 172.918 12.4139 172.472 12.9962C172.032 13.5734 171.449 13.976 170.725 14.2039L173.406 18.1991H170.824ZM167.072 9.48707V12.5025H169.449C169.869 12.5025 170.221 12.3607 170.505 12.0771C170.788 11.7885 170.93 11.429 170.93 10.9986C170.93 10.5682 170.788 10.2086 170.505 9.92001C170.221 9.63139 169.869 9.48707 169.449 9.48707H167.072Z" fill="white"></path>
  <path d="M176.916 16.1787H182.065V18.1991H174.766V7.46667H181.989V9.48707H176.916V11.7885H181.473V13.8089H176.916V16.1787Z" fill="white"></path>
  <path d="M83.3848 23.8103H78.5464V26.2256H82.7619V28.246H78.5464V32.5223H76.3969V21.7899H83.3848V23.8103Z" fill="white"></path>
  <path d="M84.219 32.5223V21.7899H86.3686V32.5223H84.219Z" fill="white"></path>
  <path d="M94.9123 21.7899H97.0618V32.5223H94.8819L89.998 25.4737V32.5223H87.8485V21.7899H90.0284L94.9123 28.8385V21.7899Z" fill="white"></path>
  <path d="M106.076 32.5223L105.309 30.4411H100.706L99.9469 32.5223H97.6302L101.762 21.7899H104.299L108.423 32.5223H106.076ZM101.42 28.4587H104.58L103.008 24.1521L101.42 28.4587Z" fill="white"></path>
  <path d="M116.04 21.7899H118.19V32.5223H116.01L111.126 25.4737V32.5223H108.977V21.7899H111.157L116.04 28.8385V21.7899Z" fill="white"></path>
  <path d="M124.789 32.7122C123.994 32.7122 123.247 32.5704 122.549 32.2868C121.85 31.9982 121.25 31.6083 120.748 31.1171C120.247 30.626 119.852 30.0386 119.564 29.355C119.275 28.6663 119.131 27.9321 119.131 27.1523C119.131 26.3725 119.275 25.6408 119.564 24.9572C119.852 24.2685 120.247 23.6786 120.748 23.1875C121.25 22.6963 121.85 22.3089 122.549 22.0253C123.247 21.7418 123.994 21.6 124.789 21.6C125.782 21.6 126.693 21.8152 127.524 22.2456C128.354 22.676 129.02 23.2659 129.521 24.0154L127.668 25.1623C127.354 24.6964 126.946 24.3318 126.445 24.0685C125.944 23.8052 125.392 23.6736 124.789 23.6736C123.807 23.6736 122.984 24.0052 122.321 24.6686C121.662 25.3319 121.333 26.1598 121.333 27.1523C121.333 28.1448 121.662 28.9752 122.321 29.6436C122.984 30.307 123.807 30.6386 124.789 30.6386C125.392 30.6386 125.944 30.507 126.445 30.2437C126.946 29.9803 127.354 29.6158 127.668 29.1499L129.521 30.2968C129.02 31.0462 128.354 31.6362 127.524 32.0666C126.693 32.497 125.782 32.7122 124.789 32.7122Z" fill="white"></path>
  <path d="M132.421 30.5019H137.571V32.5223H130.272V21.7899H137.495V23.8103H132.421V26.1117H136.979V28.1321H132.421V30.5019Z" fill="white"></path>
  <path d="M154.484 21.7899H155.479L151.993 32.5223H151.013L148.013 23.1571L144.99 32.5223H143.995L140.516 21.7899H141.541L144.526 31.2918L147.572 21.7899H148.461L151.491 31.2918L154.484 21.7899Z" fill="white"></path>
  <path d="M157.612 31.6184H163.65V32.5223H156.663V21.7899H163.574V22.6937H157.612V26.6738H163.058V27.5776H157.612V31.6184Z" fill="white"></path>
  <path d="M166.103 31.6184H172.141V32.5223H165.153V21.7899H172.065V22.6937H166.103V26.6738H171.549V27.5776H166.103V31.6184Z" fill="white"></path>
  <path d="M180.882 32.5223L176.044 27.684L174.593 29.0967V32.5223H173.644V21.7899H174.593V27.7903L180.753 21.7899H182.014L176.712 27.0308L182.173 32.5223H180.882Z" fill="white"></path>
  <path d="M189.998 17.7778L187.106 20.6731V36.1365L189.998 39.0318V17.7778Z" fill="white"></path>
  <path d="M189.03 40L186.135 37.1083H170.672L167.776 40H189.03Z" fill="white"></path>
  <path d="M68.6641 22.2222L71.5558 19.3269V3.86349L68.6641 0.968212V22.2222Z" fill="white"></path>
  <path d="M69.6318 0L72.5271 2.8917L87.9906 2.8917L90.8858 9.29042e-07L69.6318 0Z" fill="white"></path>
  <path d="M6.12366 14.5241C6.83836 14.5241 7.48808 14.6865 8.07284 15.0114C8.663 15.3308 9.12593 15.7775 9.46162 16.3515C9.79731 16.9254 9.96516 17.5643 9.96516 18.2681C9.96516 19.3294 9.59698 20.2146 8.86063 20.9239C8.12427 21.6332 7.21195 21.9878 6.12366 21.9878H3.22426V25.9999H1.25072V14.5241H6.12366ZM6.09117 20.128C6.61637 20.128 7.05493 19.952 7.40687 19.6001C7.7588 19.2427 7.93477 18.7988 7.93477 18.2681C7.93477 17.7267 7.7588 17.2773 7.40687 16.92C7.05493 16.5626 6.61637 16.3839 6.09117 16.3839H3.22426V20.128H6.09117ZM17.8025 17.521H19.6704V25.9999H17.8025V24.7816C17.0553 25.7292 16.0645 26.2029 14.83 26.2029C14.0449 26.2029 13.3329 26.0107 12.694 25.6263C12.0551 25.2365 11.5543 24.7031 11.1915 24.0263C10.8342 23.3495 10.6555 22.5942 10.6555 21.7604C10.6555 20.9266 10.8342 20.1713 11.1915 19.4945C11.5543 18.8177 12.0551 18.2871 12.694 17.9027C13.3329 17.5128 14.0449 17.3179 14.83 17.3179C16.0699 17.3179 17.0607 17.789 17.8025 18.7311V17.521ZM15.1954 24.3999C15.9426 24.3999 16.5626 24.1482 17.0553 23.6446C17.5534 23.1357 17.8025 22.5076 17.8025 21.7604C17.8025 21.0078 17.5534 20.3798 17.0553 19.8762C16.5626 19.3673 15.9426 19.1128 15.1954 19.1128C14.4429 19.1128 13.8148 19.3673 13.3112 19.8762C12.8131 20.3798 12.5641 21.0078 12.5641 21.7604C12.5641 22.5076 12.8131 23.1357 13.3112 23.6446C13.8148 24.1482 14.4429 24.3999 15.1954 24.3999ZM26.3951 17.3829H26.7118V19.2996H26.3951C25.5721 19.2996 24.9251 19.5324 24.454 19.998C23.9884 20.4583 23.7556 21.0836 23.7556 21.8741V25.9999H21.8876V17.521H23.7556V18.7636C24.4324 17.8431 25.3122 17.3829 26.3951 17.3829ZM33.3309 19.2102H30.935V23.2223C30.935 23.6121 31.0406 23.9072 31.2518 24.1076C31.4684 24.3025 31.7743 24.3999 32.1695 24.3999C32.5431 24.3999 32.9302 24.3025 33.3309 24.1076V25.8537C32.8707 26.0865 32.3536 26.2029 31.7797 26.2029C30.8863 26.2029 30.2122 25.9674 29.7574 25.4963C29.3026 25.0253 29.0752 24.3674 29.0752 23.5228V19.2102H27.6377V17.521H29.0752V15.32H30.935V17.521H33.3309V19.2102ZM42.9712 26.2029C41.6772 26.2029 40.597 25.7779 39.7307 24.9278C38.8644 24.0778 38.4312 23.022 38.4312 21.7604C38.4312 20.4989 38.8644 19.4431 39.7307 18.593C40.597 17.743 41.6772 17.3179 42.9712 17.3179C43.8158 17.3179 44.5847 17.5128 45.2777 17.9027C45.9762 18.2871 46.523 18.8204 46.9183 19.5026C47.3135 20.1794 47.5112 20.932 47.5112 21.7604C47.5112 22.5888 47.3135 23.3441 46.9183 24.0263C46.523 24.7031 45.9762 25.2365 45.2777 25.6263C44.5847 26.0107 43.8158 26.2029 42.9712 26.2029ZM41.0951 23.6446C41.5987 24.1482 42.224 24.3999 42.9712 24.3999C43.7184 24.3999 44.3383 24.1482 44.831 23.6446C45.3292 23.1357 45.5782 22.5076 45.5782 21.7604C45.5782 21.0078 45.3292 20.3798 44.831 19.8762C44.3383 19.3673 43.7184 19.1128 42.9712 19.1128C42.224 19.1128 41.5987 19.3673 41.0951 19.8762C40.5916 20.3852 40.3398 21.0132 40.3398 21.7604C40.3398 22.5076 40.5916 23.1357 41.0951 23.6446ZM52.7496 15.5393C51.9158 15.5393 51.4988 15.9264 51.4988 16.7007V17.521H53.7566V19.2102H51.4988V25.9999H49.639V19.2102H48.2015V17.521H49.639V16.587C49.639 15.7153 49.8664 15.0385 50.3212 14.5566C50.776 14.0693 51.4501 13.8257 52.3435 13.8257C52.9066 13.8257 53.4182 13.9421 53.8785 14.1749V15.8236C53.5428 15.6341 53.1665 15.5393 52.7496 15.5393Z" fill="white"></path>
</svg>
